<?xml version="1.0" encoding="utf-8"?>
<!-- Generator: Adobe Illustrator 13.0.0, SVG Export Plug-In . SVG Version: 6.00 Build 14948)  -->
<!DOCTYPE svg PUBLIC "-//W3C//DTD SVG 1.1//EN" "http://www.w3.org/Graphics/SVG/1.1/DTD/svg11.dtd">
<svg version="1.1" id="Layer_1" xmlns="http://www.w3.org/2000/svg" xmlns:xlink="http://www.w3.org/1999/xlink" x="0px" y="0px"
	 width="215px" height="45px" viewBox="9 7 215 45" enable-background="new 9 7 215 45" xml:space="preserve">
<g>
	<path fill="#D12250" d="M28.036,49.574h-1.821c-0.141,0-0.279-0.063-0.37-0.168c-0.093-0.107-0.135-0.248-0.115-0.389l1.548-10.938
		c0.021-0.156-0.026-0.315-0.128-0.435c-0.103-0.119-0.252-0.188-0.412-0.188h-6.656c-0.271,0-0.502,0.199-0.54,0.468l-1.59,11.229
		c-0.033,0.24-0.241,0.421-0.484,0.421h-1.819c-0.142,0-0.276-0.062-0.37-0.168c-0.093-0.107-0.135-0.25-0.116-0.395l1.55-10.933
		c0.021-0.156-0.025-0.314-0.128-0.436c-0.103-0.119-0.252-0.188-0.412-0.188h-4.681c-0.271,0-0.491-0.219-0.491-0.488v-1.451
		c0-0.27,0.219-0.488,0.491-0.488h5.143c0.271,0,0.5-0.2,0.54-0.469l1.139-7.875c0.024-0.155-0.023-0.314-0.128-0.434
		c-0.104-0.12-0.252-0.188-0.412-0.188h-4.84c-0.271,0-0.492-0.219-0.492-0.49v-1.449c0-0.271,0.22-0.491,0.492-0.491h5.308
		c0.271,0,0.502-0.199,0.54-0.468l1.588-11.223c0.035-0.24,0.243-0.423,0.484-0.423h1.821c0.14,0,0.276,0.063,0.37,0.17
		c0.094,0.108,0.136,0.248,0.114,0.388L21.611,23.01c-0.021,0.156,0.025,0.315,0.128,0.435c0.104,0.119,0.253,0.188,0.412,0.188
		h6.655c0.271,0,0.503-0.199,0.54-0.468l1.588-11.223c0.035-0.24,0.243-0.423,0.486-0.423h1.817c0.14,0,0.278,0.063,0.366,0.168
		c0.099,0.11,0.141,0.25,0.12,0.39l-1.546,10.934c-0.021,0.156,0.026,0.315,0.129,0.435c0.103,0.119,0.253,0.188,0.411,0.188h4.233
		c0.271,0,0.491,0.22,0.491,0.491v1.449c0,0.271-0.22,0.49-0.491,0.49h-4.695c-0.271,0-0.503,0.202-0.541,0.472l-1.09,7.873
		c-0.021,0.155,0.026,0.313,0.129,0.432c0.103,0.12,0.255,0.188,0.411,0.188h4.238c0.271,0,0.491,0.22,0.491,0.488v1.451
		c0,0.271-0.22,0.488-0.491,0.488h-4.754c-0.271,0-0.503,0.199-0.54,0.468L28.52,49.154C28.484,49.391,28.276,49.574,28.036,49.574
		L28.036,49.574z M21.689,26.064c-0.271,0-0.503,0.202-0.54,0.472l-1.087,7.873c-0.021,0.155,0.025,0.313,0.128,0.432
		c0.103,0.12,0.255,0.188,0.412,0.188h6.65c0.271,0,0.503-0.202,0.541-0.471l1.089-7.875c0.021-0.155-0.026-0.313-0.128-0.432
		c-0.103-0.12-0.254-0.188-0.411-0.188H21.689L21.689,26.064z"/>
	<g>
		<path fill="#105E70" d="M159.404,48.98c0.018,0.846,0.451,1.131,1.188,1.131c0.008,0,0.008,0.008,0.014,0.008h6.476
			c0.007,0,0.008-0.008,0.015-0.008c0.74,0,1.178-0.286,1.188-1.146V31.977c0-2.657-0.78-11.319-10.796-11.319
			c-3.973,0-7.166,1.632-9.489,4.854c-0.153,0.211-0.396,0.335-0.658,0.335h-0.116c-0.447,0-0.81-0.362-0.81-0.81
			c0,0,0-15.293,0-15.838c0-0.75-0.427-1.197-1.09-1.197c-0.351,0-4.65,0-6.705,0c-0.677,0.029-1.08,0.324-1.084,1.155v39.787
			c0.004,0.881,0.444,1.17,1.192,1.17c0.006,0,0.008,0.007,0.014,0.007h6.451c0.007,0,0.008-0.007,0.014-0.007
			c0.751,0,1.193-0.289,1.193-1.176l0.015-0.011V38.098c0-6.844,2.472-10.313,7.339-10.313c3.751,0,5.652,2.841,5.652,8.449V48.98
			H159.404z"/>
		<path fill="#105E70" d="M221.548,27.821c0.88-0.006,1.166-0.447,1.166-1.188l0.282-4.687c0.041-0.675-0.207-1.107-1.032-1.199
			c-0.584-0.059-1.116-0.091-1.608-0.091c-3.811,0-6.355,1.798-8.25,5.832c-0.135,0.284-0.42,0.466-0.734,0.466h-0.114
			c-0.446,0-0.81-0.364-0.81-0.812V22.39c-0.043-0.72-0.42-1-1.039-1.035h-5.838c-0.659,0.038-1.057,0.333-1.057,1.16l-0.012,0.008
			v26.404l0.012,0.009c0,0.888,0.442,1.176,1.193,1.176c0.006,0,0.007,0.008,0.014,0.008h6.475c0.007,0,0.008-0.008,0.015-0.008
			c0.695,0,1.11-0.27,1.17-1.014v-11c0-6.457,3.158-10.313,8.449-10.313c0.562,0,1.135,0.015,1.711,0.049L221.548,27.821z"/>
		<path fill="#105E70" d="M77.186,49.032V12.019c-0.072-0.71-0.482-0.974-1.165-0.974c-0.011,0-0.014-0.011-0.025-0.013h-6.838
			c-0.011,0.002-0.014,0.013-0.025,0.013c-0.708,0-1.128,0.277-1.175,1.051v13.698c0,0.447-0.362,0.809-0.81,0.809h-12.83
			c-0.448,0-0.809-0.361-0.809-0.809V12.015c-0.073-0.707-0.483-0.97-1.164-0.97c-0.011,0-0.014-0.011-0.025-0.013h-6.838
			c-0.011,0.002-0.014,0.013-0.025,0.013c-0.715,0-1.139,0.279-1.178,1.073v37.051c0.076,0.679,0.469,0.938,1.116,0.95h6.979
			c0.69-0.014,1.103-0.295,1.136-1.083V33.492c0-0.448,0.361-0.811,0.809-0.811h12.83c0.448,0,0.81,0.361,0.81,0.811v15.697
			c0.082,0.662,0.473,0.918,1.113,0.93h6.979C76.742,50.105,77.154,49.824,77.186,49.032z"/>
		<path fill="#105E70" d="M99.488,45.34h0.116c0.447,0,0.81,0.36,0.81,0.809c0,0.901,0.06,1.797,0.122,2.744
			c0.006,0.088,0.011,0.178,0.017,0.266c0.065,0.656,0.428,0.924,1.02,0.96h5.573c0.749,0,1.19-0.289,1.193-1.171
			c-0.182-1.529-0.27-3.201-0.27-5.19V32.441c0-10.256-8.556-11.785-13.654-11.785c-4.155,0-7.651,0.563-10.912,1.752
			c-0.226,0.146-0.346,0.349-0.384,0.604l0.014,0.532c0.001,0.01,0.001,0.02,0.003,0.029c0,0.003-0.003,0.005-0.002,0.01
			l0.073,2.914c0.157,0.627,0.517,0.956,1.321,0.813l0.002,0.002c2.267-0.835,4.806-1.282,7.613-1.282
			c5.084,0,7.692,2.035,7.748,6.049c0.004,0.241-0.099,0.472-0.283,0.628c-0.146,0.127-0.336,0.195-0.526,0.195
			c-0.046,0-0.091-0.006-0.137-0.014c-1.408-0.244-3.234-0.396-4.761-0.396c-6.788,0-14.878,1.662-14.878,9.57
			c0,6.457,5.458,8.754,10.563,8.754c4.007,0,6.68-1.525,8.938-5.103C98.951,45.48,99.209,45.34,99.488,45.34z M92.604,45.439
			c-3.065,0-5.125-1.662-5.125-4.133c0-3.07,2.612-4.832,7.167-4.832c1.134,0,2.213,0.058,3.254,0.111
			c0.418,0.023,0.823,0.044,1.214,0.063c0.432,0.019,0.773,0.373,0.773,0.809C99.888,41.298,97.103,45.439,92.604,45.439z"/>
		<path fill="#105E70" d="M125.066,32.811c-3.037-0.709-5.905-1.384-5.905-3.867c0-1.328,0.979-2.912,5.651-2.912
			c2.123,0,4.398,0.419,6.32,1.111l0.014-0.015c0.84,0.122,1.192-0.245,1.317-0.929l0.334-2.99c0.001-0.015-0.014-0.023-0.01-0.038
			c0.096-0.544,0.019-0.95-0.375-1.194c-2.642-0.876-5.683-1.32-9.292-1.32c-6.043,0-12.139,2.795-12.139,9.044
			c0,5.884,4.747,7.123,8.934,8.209c3.085,0.804,5.996,1.56,5.996,4.271c0,3.26-3.814,3.26-5.066,3.26
			c-3.098,0-5.913-0.68-7.901-1.322c-0.849-0.13-1.205,0.251-1.329,0.979c-0.001,0.008-0.008,0.008-0.009,0.014l-0.295,3.873
			c0.042,0.429,0.302,0.727,0.925,0.865l0.002,0.004c2.638,0.67,5.487,0.965,9.19,0.965c6.096,0,13.361-1.617,13.361-9.334
			C134.791,35.082,129.625,33.875,125.066,32.811z"/>
		<path fill="#105E70" d="M197.697,48.066c0-0.006,0.006-0.008,0.006-0.014v-3.039c-0.155-0.666-0.518-1.009-1.303-0.875
			c-2.797,1.047-5.353,1.301-7.161,1.301c-5.935,0-9.116-2.138-9.728-6.528c-0.033-0.234,0.037-0.466,0.19-0.644
			c0.153-0.177,0.376-0.277,0.61-0.277h18.981c0.007,0,0.008-0.006,0.015-0.006c0.743,0,1.184-0.289,1.19-1.158
			c-0.011-6.064-1.921-16.17-14.526-16.17c-9.395,0-15.464,5.909-15.464,15.052c0,9.038,6.776,15.11,16.859,15.11
			c3.685,0,7.009-0.527,9.926-1.545C197.669,49.03,197.697,48.625,197.697,48.066z M186.029,25.684c4.16,0,6.645,2.679,6.645,7.166
			c0,0.447-0.361,0.81-0.809,0.81h-11.667c-0.226,0-0.439-0.095-0.591-0.257c-0.154-0.163-0.233-0.383-0.219-0.606
			C179.686,28.409,182.229,25.684,186.029,25.684z"/>
	</g>
</g>
</svg>
